<svg xmlns="http://www.w3.org/2000/svg" version="1.0" width="319.000000pt" height="83.000000pt" viewBox="0 0 319.000000 83.000000" preserveAspectRatio="xMidYMid meet">
<g transform="translate(0.000000,83.000000) scale(0.100000,-0.100000)" fill="#7100eb" stroke="none">
<path d="M1926 779 c-53 -42 -21 -123 49 -123 69 0 99 71 50 119 -30 30 -64 32 -99 4z"></path>
<path d="M30 730 l0 -50 215 0 215 0 0 50 0 50 -215 0 -215 0 0 -50z"></path>
<path d="M520 425 l0 -356 55 3 55 3 3 353 2 352 -57 0 -58 0 0 -355z"></path>
<path d="M690 425 l0 -355 60 0 60 0 0 355 0 355 -60 0 -60 0 0 -355z"></path>
<path d="M130 530 l0 -50 108 0 c60 0 111 -2 113 -4 2 -2 2 -27 1 -55 l-4 -51 -109 0 -109 0 0 -50 0 -50 165 0 165 0 0 155 0 155 -165 0 -165 0 0 -50z"></path>
<path d="M1568 567 c-64 -18 -109 -51 -149 -110 -31 -45 -34 -57 -36 -130 -2 -94 21 -152 83 -207 52 -45 93 -60 165 -60 111 0 188 41 229 121 32 62 29 69 -39 69 -51 0 -61 -3 -66 -20 -3 -11 -19 -29 -35 -40 -111 -79 -253 29 -219 167 28 111 177 149 241 62 20 -26 27 -29 80 -29 33 0 58 4 58 10 0 21 -39 85 -67 112 -57 55 -162 78 -245 55z"></path>
<path d="M2255 571 c-152 -37 -231 -215 -164 -370 24 -58 83 -114 136 -132 59 -19 156 -7 200 24 l38 27 3 -25 c3 -24 7 -25 63 -25 l59 0 -2 247 -3 248 -55 0 c-53 0 -55 -1 -58 -28 l-3 -27 -32 24 c-30 23 -102 47 -137 45 -8 -1 -28 -4 -45 -8z m138 -117 c69 -35 77 -50 77 -137 0 -73 -2 -81 -28 -107 -64 -64 -162 -62 -221 5 -107 122 29 311 172 239z"></path>
<path d="M2847 566 c-22 -8 -49 -24 -62 -36 l-23 -22 -4 28 c-3 28 -6 29 -60 32 l-58 3 0 -251 0 -250 60 0 60 0 0 164 0 164 35 31 c29 25 44 31 83 31 101 0 122 -43 122 -245 l0 -145 60 0 60 0 0 158 c0 217 -22 281 -111 327 -41 22 -119 27 -162 11z"></path>
<path d="M874 561 c-2 -2 -4 -77 -4 -166 0 -179 10 -228 58 -279 35 -37 81 -56 135 -56 67 0 104 10 132 36 32 30 35 30 35 -1 0 -24 3 -25 60 -25 l60 0 -2 248 -3 247 -57 3 -58 3 0 -169 c0 -162 -1 -169 -22 -189 -64 -58 -152 -60 -193 -5 -18 24 -21 47 -25 192 l-5 165 -53 0 c-30 0 -56 -2 -58 -4z"></path>
<path d="M1916 562 c-3 -5 -5 -117 -5 -250 l0 -242 60 0 59 0 0 249 0 248 -54 2 c-30 0 -57 -3 -60 -7z"></path>
<path d="M30 120 l0 -50 216 0 215 0 -3 48 -3 47 -212 2 -213 3 0 -50z"></path>
</g>
</svg>